Patient4_TMGait_0pt3_03_left_21_GRF.mot
version=1
nRows=39
nColumns=19
inDegrees=no
endheader
time	F1x	F1y	F1z	M1x	M1y	M1z	F2x	F2y	F2z	M2x	M2y	M2z	EC1x	EC1y	EC1z	EC2x	EC2y	EC2z
36.47	-6.9243	12.5973	3.3654	-4.2894	-4.2383	12.7667	-27.8041	757.3811	-58.6271	279.57	72.2936	753.1582	-0.0592	0.0182	-0.0073	-0.0462	0.0165	0.9585
36.4886	-4.788	9.2197	2.4057	-3.1496	-3.0157	9.3432	-28.6337	759.5535	-60.1041	280.1422	73.4883	753.2449	-0.0592	0.0182	-0.0073	-0.0462	0.0165	0.9585
36.5071	-2.9087	6.2693	1.5483	-2.1523	-1.9288	6.3648	-29.6663	762.6398	-61.2696	281.042	74.503	754.183	-0.0592	0.0182	-0.0073	-0.0462	0.0165	0.9585
36.5257	-1.4333	3.9801	0.87283	-1.3794	-1.0723	4.0653	-30.8842	767.2322	-61.9156	282.5913	75.157	756.5512	-0.0592	0.0182	-0.0073	-0.0462	0.0165	0.9585
36.5443	-0.38487	2.3833	0.3954	-0.84321	-0.46349	2.4703	-32.1405	774.2924	-61.9111	285.2728	75.2649	761.1294	-0.0592	0.0182	-0.0073	-0.0462	0.0165	0.9585
36.5629	0.28363	1.3928	0.097796	-0.51436	-0.07876	1.4844	-33.1833	784.7388	-61.2088	289.5325	74.661	768.5611	-0.0592	0.0182	-0.0073	-0.0462	0.0165	0.9585
36.5814	0.65028	0.86361	-0.054418	-0.34306	0.12437	0.96128	-33.719	798.9507	-59.8523	295.5643	73.2425	778.9519	-0.0592	0.0182	-0.0073	-0.0462	0.0165	0.9585
36.6	0.79877	0.63068	-0.10253	-0.271	0.19486	0.73452	-33.4586	816.4637	-57.9877	303.1823	71.0036	791.6482	-0.0592	0.0182	-0.0073	-0.0462	0.0165	0.9585
36.6186	0.80191	0.53438	-0.087262	-0.24146	0.17964	0.63654	-32.1813	835.8324	-55.8362	311.7718	68.0388	805.1683	-0.0592	0.0182	-0.0073	-0.0462	0.0165	0.9585
36.6371	0.71472	0.4247	-0.04188	-0.20279	0.11656	0.51783	-29.8134	854.6538	-53.6355	320.3164	64.5224	817.2698	-0.0592	0.0182	-0.0073	-0.0462	0.0165	0.9585
36.6557	0.57535	0.1692	0.0089325	-0.10966	0.034948	0.24902	-26.4345	869.8906	-51.5894	327.5427	60.6681	825.2501	-0.0592	0.0182	-0.0073	-0.0462	0.0165	0.9585
36.6743	0.40641	-0.34534	0.045442	0.077886	-0.041813	-0.28386	-22.2118	878.4985	-49.826	332.1799	56.6658	826.5035	-0.0592	0.0182	-0.0073	-0.0462	0.0165	0.9585
36.6929	0.22325	-1.201	0.049488	0.38901	-0.092886	-1.1624	-17.3555	878.1478	-48.3805	333.2508	52.6471	819.1536	-0.0592	0.0182	-0.0073	-0.0462	0.0165	0.9585
36.7114	0.040507	-2.4298	0.0038766	0.83522	-0.096993	-2.4161	-12.0664	867.8398	-47.2115	330.3189	48.6756	802.5649	-0.0592	0.0182	-0.0073	-0.0462	0.0165	0.9585
36.73	-0.12293	-3.982	-0.10338	1.3985	-0.03474	-3.9957	-6.4959	848.1869	-46.2378	323.5991	44.7621	777.5487	-0.0592	0.0182	-0.0073	-0.0462	0.0165	0.9585
36.7486	-0.23513	-5.6824	-0.27955	2.016	0.11324	-5.7296	-0.75674	821.2721	-45.3823	313.8975	40.9079	746.201	-0.0592	0.0182	-0.0073	-0.0462	0.0165	0.9585
36.7671	-0.24797	-7.1762	-0.5264	2.5603	0.36597	-7.2677	5.0403	790.202	-44.6049	302.4282	37.1449	711.4803	-0.0592	0.0182	-0.0073	-0.0462	0.0165	0.9585
36.7857	-0.088886	-7.8702	-0.83209	2.815	0.73825	-8.0186	10.7741	758.4982	-43.9163	290.5721	33.5481	676.651	-0.0592	0.0182	-0.0073	-0.0462	0.0165	0.9585
36.8043	0.33728	-6.8769	-1.1615	2.4554	1.2288	-7.0897	16.2873	729.3934	-43.3539	279.6007	30.2206	644.6751	-0.0592	0.0182	-0.0073	-0.0462	0.0165	0.9585
36.8229	1.1371	-2.9935	-1.4484	1.0433	1.8121	-3.2688	21.3525	705.162	-42.9526	270.4123	27.2832	617.641	-0.0592	0.0182	-0.0073	-0.0462	0.0165	0.9585
36.8414	2.4164	5.2533	-1.5844	-1.9555	2.4181	4.93	25.6886	686.6666	-42.7239	263.3555	24.8529	596.3727	-0.0592	0.0182	-0.0073	-0.0462	0.0165	0.9585
36.86	4.2512	19.4545	-1.4096	-7.1149	2.9084	19.124	28.9971	673.2319	-42.639	258.1784	23.017	580.3323	-0.0592	0.0182	-0.0073	-0.0462	0.0165	0.9585
36.8786	6.6262	41.0163	-0.71436	-14.938	3.0568	40.7636	30.994	662.8151	-42.6094	254.0955	21.81	567.7907	-0.0592	0.0182	-0.0073	-0.0462	0.0165	0.9585
36.8971	9.2535	70.7471	0.73264	-25.7063	2.5172	70.7079	31.4601	652.4548	-42.4802	249.9675	21.1875	556.2133	-0.0592	0.0182	-0.0073	-0.0462	0.0165	0.9585
36.9157	11.2816	108.3475	3.1324	-39.2944	0.77522	108.7105	30.2967	638.9612	-42.0385	244.5732	21.0129	542.8539	-0.0592	0.0182	-0.0073	-0.0462	0.0165	0.9585
36.9343	11.6278	152.1502	6.603	-55.0757	-2.6757	153.1637	27.5817	619.6867	-41.0579	236.9087	21.0724	525.4004	-0.0592	0.0182	-0.0073	-0.0462	0.0165	0.9585
36.9529	9.9767	199.5223	11.0771	-72.0811	-7.8744	201.4225	23.6443	593.2204	-39.3789	226.4523	21.114	502.5384	-0.0592	0.0182	-0.0073	-0.0462	0.0165	0.9585
36.9714	6.6952	247.6775	16.1224	-89.3233	-14.2377	250.5694	19.031	559.7006	-36.9777	213.2816	20.9155	474.223	-0.0592	0.0182	-0.0073	-0.0462	0.0165	0.9585
36.99	2.4092	294.6885	21.0679	-106.1515	-20.8404	298.5258	14.3444	520.6805	-33.957	198.0165	20.3334	441.5898	-0.0592	0.0182	-0.0073	-0.0462	0.0165	0.9585
37.0086	-2.3105	339.5599	25.3648	-122.2483	-26.9076	344.1804	10.0759	478.5922	-30.5081	181.6121	19.3288	406.5239	-0.0592	0.0182	-0.0073	-0.0462	0.0165	0.9585
37.0271	-6.9622	381.6558	28.7108	-137.4043	-31.9452	386.7889	6.5213	436.035	-26.8666	165.083	17.9653	371.0773	-0.0592	0.0182	-0.0073	-0.0462	0.0165	0.9585
37.0457	-11.1025	420.3058	31.0672	-151.371	-35.7527	425.5817	3.7937	395.2327	-23.2822	149.2922	16.3811	337.0254	-0.0592	0.0182	-0.0073	-0.0462	0.0165	0.9585
37.0643	-14.3695	454.7583	32.5913	-163.8519	-38.3603	459.7441	1.8816	357.7872	-20.0009	134.8539	14.7551	305.653	-0.0592	0.0182	-0.0073	-0.0462	0.0165	0.9585
37.0829	-16.5524	484.3633	33.5027	-174.5819	-39.9191	488.6141	0.69444	324.6352	-17.2284	122.1146	13.2629	277.715	-0.0592	0.0182	-0.0073	-0.0462	0.0165	0.9585
37.1014	-17.6318	508.7548	33.9571	-183.4079	-40.5902	511.8759	0.099803	296.2027	-15.0824	111.2158	12.0303	253.5706	-0.0592	0.0182	-0.0073	-0.0462	0.0165	0.9585
37.12	-17.7055	527.8583	34.0172	-190.2952	-40.4869	529.5531	-0.029736	272.6852	-13.5777	102.2068	11.106	233.4129	-0.0592	0.0182	-0.0073	-0.0462	0.0165	0.9585
37.1386	-16.9108	541.7656	33.6915	-195.2775	-39.6875	541.8527	0.21193	254.2247	-12.658	95.1177	10.475	217.4026	-0.0592	0.0182	-0.0073	-0.0462	0.0165	0.9585
37.1571	-15.4295	550.6073	32.9976	-198.4026	-38.2943	549.0191	0.75859	240.912	-12.2408	89.9635	10.096	205.66	-0.0592	0.0182	-0.0073	-0.0462	0.0165	0.9585
37.1757	-13.4762	554.5763	32.0002	-199.7362	-36.4593	551.3478	1.5626	232.6424	-12.2442	86.6927	9.9241	198.1337	-0.0592	0.0182	-0.0073	-0.0462	0.0165	0.9585
